<?xml version="1.0" encoding="utf-8"?>
<svg version="1.1" xmlns:xlink="http://www.w3.org/1999/xlink" width="26px" height="27px" xmlns="http://www.w3.org/2000/svg">
  <g transform="matrix(1 0 0 1 -37 -100 )">
    <path d="M 25.86546226415093 23.24133254716981  C 25.972036025915084 23.128349035062328  25.971051002728082 22.947294196190747  25.863254716981128 22.835568396226417  L 19.619759433962262 16.351938679245283  C 19.51200357871736 16.24007215682207  19.33733132694302 16.24007215682207  19.229575471698112 16.351938679245283  L 17.635174528301885 18.00766273584906  L 15.684254716981133 15.981134433962263  L 18.611462264150944 12.941915094339622  C 18.66336263670025 12.888154632284266  18.69253100326035 12.815158076388096  18.69253100326035 12.739033018867925  C 18.69253100326035 12.662907961347752  18.66336263670025 12.58991140545158  18.611462264150944 12.536150943396226  L 13.92870283018868 7.67328537735849  C 13.819292566758417 7.565647372825663  13.647929131354784 7.565647372825663  13.538518867924529 7.67328537735849  L 10.61186320754717 10.712504716981131  L 8.660391509433962 8.68597641509434  L 10.254792452830188 7.030252358490567  C 10.306692825379493 6.976491896435211  10.335861191939593 6.90349534053904  10.335861191939593 6.827370283018868  C 10.335861191939593 6.751245225498699  10.306692825379493 6.678248669602526  10.254792452830188 6.624488207547172  L 4.0101933962264145 0.14200471698113187  C 3.902437540981509 0.030138194557917396  3.727765289207169 0.030138194557917396  3.620009433962264 0.14200471698113187  L 0.2700566037735847 3.620228773584906  C 0.21815623122427646 3.6739892356402613  0.18898786466417827 3.7469857915364315  0.18898786466417827 3.8231108490566044  C 0.18898786466417827 3.8992359065767768  0.21815623122427646 3.9722324624729466  0.2700566037735847 4.0259929245283015  L 3.3915283018867917 7.267521226415092  L 6.513551886792452 10.510195754716982  C 6.565321220623534 10.564092295441261  6.635614200375403 10.594382522253671  6.7089198113207535 10.594382522253671  C 6.782225422266102 10.594382522253671  6.852518402017973 10.564092295441261  6.904287735849055 10.510195754716982  L 8.270207547169809 9.091740566037736  L 10.221679245283019 11.11826886792453  L 7.2950235849056595 14.157488207547168  C 7.243123212356353 14.211248669602526  7.213954845796255 14.284245225498697  7.213954845796255 14.36037028301887  C 7.213954845796255 14.436495340539036  7.243123212356353 14.50949189643521  7.2950235849056595 14.563252358490566  L 9.441311320754716 16.79208962264151  L 8.251443396226412 18.027148584905664  C 7.815648765910941 17.659221336495975  7.271665142179625 17.45736803944753  6.710023584905659 17.455181603773582  C 6.05112374535089 17.45337590621743  5.418860305692654 17.725128742493695  4.953919811320755 18.20997169811321  C 3.9858667576294002 19.217924229824035  3.985866757629399 20.84931161923257  4.953919811320755 21.857264150943397  C 5.418720775487792 22.342323491474666  6.051075203438666 22.614115435383976  6.710023584905659 22.612054245283016  C 7.368923424460431 22.61385994283917  8.001186864118663 22.34210710656291  8.466127358490565 21.857264150943397  C 9.36791037735849 20.920797169811323  9.418683962264149 19.44445754716981  8.641627358490565 18.432912735849055  L 9.83204716981132 17.196707547169808  L 11.978886792452832 19.425544811320755  C 12.030510415978307 19.479725075678516  12.100857974681038 19.5102117032153  12.174254716981132 19.5102117032153  C 12.247651459281222 19.5102117032153  12.317999017983954 19.479725075678516  12.369622641509434 19.425544811320755  L 15.29627830188679 16.386325471698115  L 17.247198113207546 18.412853773584906  L 15.881830188679238 19.830735849056605  C 15.774106870790222 19.942636160272464  15.774106870790218 20.124026575576586  15.881830188679238 20.235926886792452  L 19.002749999999995 23.476882075471696  L 19.003301886792443 23.47802830188679  L 19.003853773584897 23.478601415094342  L 22.12532547169811 26.720129716981134  C 22.177094805529187 26.774026257705412  22.247387785281056 26.804316484517823  22.320693396226407 26.804316484517823  C 22.393999007171757 26.804316484517823  22.464291986923623 26.774026257705412  22.516061320754705 26.720129716981134  L 25.86546226415093 23.24133254716981  Z M 0.8550566037735833 3.8231108490566044  L 3.815377358490564 0.7495047169811317  L 6.553287735849055 3.5927193396226413  C 6.540042452830186 3.6024622641509425  6.525141509433961 3.6076202830188677  6.513551886792452 3.620228773584906  L 3.5868962264150928 6.660021226415093  L 0.8550566037735833 3.8231108490566044  Z M 8.074287735849056 8.484813679245283  L 6.708919811320755 9.902122641509434  L 3.977080188679245 7.065212264150944  L 6.903735849056604 4.025419811320755  C 6.915325471698115 4.013384433962264  6.920844339622642 3.9979103773584916  6.93022641509434 3.9841556603773594  L 9.669240566037736 6.828516509433962  L 8.075391509433963 8.483667452830188  L 8.074839622641509 8.484240566037736  L 8.074287735849056 8.484813679245283  Z M 8.074839622641512 18.61458962264151  C 8.828053702385478 19.39848049338374  8.828053702385475 20.66760912925777  8.074839622641509 21.4515  C 7.344693396226415 22.20915566037736  6.072594339622643 22.20858254716981  5.343000000000002 21.4515  C 4.590089438860246 20.667478799763504  4.590089438860246 19.398610822878005  5.343000000000002 18.61458962264151  C 5.704533890824308 18.237339498855597  6.196401653119872 18.026008342803575  6.708919811320756 18.027721698113204  C 7.224933962264153 18.027721698113204  7.709490566037737 18.235761792452827  8.074839622641512 18.61458962264151  Z M 15.098150943396226 15.779398584905655  L 12.172599056603774 18.817471698113206  L 7.88002358490566 14.360370283018867  L 13.733334905660376 8.281931603773582  L 18.025910377358493 12.73960613207547  L 15.099806603773585 15.778252358490562  L 15.098702830188678 15.77882547169811  L 15.098150943396226 15.779398584905655  Z M 16.465726415094345 20.03304481132075  L 17.829438679245285 18.61630896226415  L 17.83109433962264 18.61516273584905  L 17.83219811320755 18.613443396226412  L 19.424943396226418 16.959438679245277  L 22.16340566037736 19.80322641509434  C 22.150712264150947 19.812969339622644  22.135811320754723 19.818127358490568  22.124221698113214 19.830735849056605  L 19.197014150943403 22.869955188679246  L 16.465726415094345 20.03304481132075  Z M 25.278254716981134 23.038450471698113  L 22.3184858490566 26.112056603773585  L 19.58664622641509 23.275146226415092  L 22.513853773584906 20.235926886792452  C 22.525443396226414 20.22389150943396  22.530962264150943 20.20841745283019  22.540344339622642 20.1952358490566  L 25.278254716981134 23.038450471698113  Z M 6.708919811320755 25.478193396226416  C 3.817584905660377 25.478193396226416  1.4659952830188685 23.035584905660375  1.4659952830188685 20.033044811320757  C 1.4659952830188685 19.8747839690933  1.3424512163448186 19.74648820754717  1.1900518867924534 19.74648820754717  C 1.0376525572400876 19.74648820754717  0.9141084905660384 19.8747839690933  0.9141084905660384 20.033044811320757  C 0.9141084905660384 23.351370283018866  3.5134952830188695 26.051306603773583  6.708919811320755 26.051306603773583  C 6.861319140873121 26.051306603773583  6.98486320754717 25.923010842227452  6.98486320754717 25.76475  C 6.98486320754717 25.606489157772547  6.861319140873121 25.478193396226416  6.708919811320755 25.478193396226416  Z " fill-rule="nonzero" fill="#7f7f7f" stroke="none" transform="matrix(1 0 0 1 37 100 )" />
  </g>
</svg>